<svg id="AoNrEOJG7" viewBox="0 0 240 218" height="218" width="240" style="width: 240px; height: 218px; position: absolute; top: 50%; left: 50%; z-index: 0; cursor: pointer; overflow: visible; transform: translate(-50%, -50%) scale(0.719266);"><defs id="SvgjsDefs1140"></defs><g id="SvgjsG1141" featurekey="rootContainer" transform="matrix(1,0,0,1,0,0)" fill="#222831"><rect xmlns="http://www.w3.org/2000/svg" width="240" height="218" rx="10" ry="10"></rect></g><g id="SvgjsG1142" featurekey="symbolFeature-0" transform="matrix(1.2861736965448654,0,0,1.2861736965448654,62.1221861086627,17.840065558826193)" fill="#ffffff"><g xmlns="http://www.w3.org/2000/svg"><path fill="#ffffff" d="M70.2,23.2c-4.4-9.2-17.9-9.6-23.4-1.1c-6-8.4-19-8.1-23.4,1.1c-3.4,7.2,3.4,25.4,8.2,30.9   c4.8,5.4,12,1.3,15.2,1.3c3.2,0,10.4,4.1,15.2-1.3S73.7,30.4,70.2,23.2z"></path><path fill="#ffffff" d="M47,14.9C49,4.3,56.8,1.4,64.1,1.7C61.6,10.6,55.5,13.6,47,14.9z"></path><path fill="#ffffff" d="M45.6,21.9c0.2-3.8,0.3-7.6-0.2-9.7c-0.5-2.5-2.2-4.4-2.8-5.1c-1.1-1.1-0.2-2,0.6-2.2   c1.2-0.3,1.8,0.6,2.4,1.3c0.6,0.8,1.5,2.9,1.8,5.2c0.4,2.8,0.2,7.7,0,10.2C47,26.3,45.6,21.9,45.6,21.9z"></path><g><g><path fill="#ffffff" d="M76.1,86H25.9c-6.6,0-12-5.4-12-12c0-6.6,5.4-12,12-12h50.2v4.7H25.9c-4,0-7.3,3.3-7.3,7.3     s3.3,7.3,7.3,7.3h50.2V86z"></path></g><path fill="#ffffff" d="M75,68.7H24.7c-1.4,0.3-2.5,1.1-3.3,2.3H75V68.7z"></path><path fill="#ffffff" d="M75,72.8H20.7c-0.1,0.4-0.1,0.7-0.1,1.1s0,0.8,0.1,1.1H75V72.8z"></path><path fill="#ffffff" d="M75,76.9H21.4c0.7,1.1,1.9,2,3.3,2.3H75V76.9z"></path></g></g></g><g id="SvgjsG1143" featurekey="nameFeature-0" transform="matrix(1.718121818837587,0,0,1.718121818837587,18.282453509535024,128.48213672787534)" fill="#ffffff"><path d="M18.68 24.759999999999998 c3.72 0 7.32 2.68 7.32 7.16 c0 4.96 -4.52 8.16 -11.2 8.16 c-1.92 0 -4.16 -0.24 -7.12 -0.24 c-2.52 0 -4.44 0.04 -6.28 0.24 c-0.36 0.04 -0.56 -1.36 -0.24 -1.44 c2.32 -0.6 4.12 -0.96 4.12 -3.92 l0 -17.76 c0 -2.56 -1.64 -3.24 -3.36 -3.68 c-0.32 -0.08 -0.12 -1.4 0.2 -1.36 c1.64 0.2 3.56 0.24 4.84 0.24 c3.2 0 5.56 -0.24 7.32 -0.24 c5.16 0 9.4 2.16 9.44 6.56 c0.04 3.24 -2.24 5.48 -5.04 6.04 l0 0.24 z M12.92 14 c-2.12 0 -2.84 0.72 -2.84 2.96 l0 7.12 l4.12 0 c2.88 0 4.56 -1.44 4.56 -4.52 c0 -3.8 -2.56 -5.56 -5.84 -5.56 z M14.68 38 c3.52 0 6.16 -1.04 6.16 -5.2 c0 -4.4 -2.92 -6.72 -6.64 -6.72 l-4.12 0 l0 8.64 c0 2.2 1.12 3.28 4.6 3.28 z M29.599999999999998 40.08 c-0.4 0.04 -0.56 -1.36 -0.24 -1.44 c2.32 -0.6 4.12 -0.96 4.12 -3.92 l0 -17.76 c0 -2.8 -1.64 -3.36 -3.36 -3.6 c-0.32 -0.04 -0.08 -1.36 0.2 -1.36 l11.04 0 c0.28 0 0.48 1.32 0.2 1.36 c-1.68 0.2 -3.28 0.8 -3.28 3.6 l0 17.76 c0 2.28 0.96 3.12 4.28 3.12 c6.04 0 8.44 -2.76 9.4 -4.28 c0.28 -0.44 1.36 -0.24 1.36 0.44 c0 2.04 -1.72 6.08 -4.24 6.08 c-2.24 -0.12 -4.44 -0.24 -7.8 -0.24 c-3.68 0 -8.04 -0.12 -11.68 0.24 z M71.16 40.64 c-8.32 0 -14.44 -6.16 -14.44 -14.48 c0 -8.08 5.76 -14.8 14.52 -14.8 c8.36 0 14.44 6.12 14.44 14.44 c0 8.12 -5.72 14.84 -14.52 14.84 z M72.72 37.92 c3.52 0 8.2 -2.32 8.2 -9.88 c0 -8.08 -5.48 -13.96 -11.24 -13.96 c-3.52 0 -8.16 2.32 -8.16 9.84 c0 8.16 5.48 14 11.2 14 z M107.32 40.64 c-9.56 0 -17.24 -4.72 -17.24 -14.12 c0 -7.64 5.24 -15.16 16.36 -15.16 c4.88 0 8.68 1.44 8.2 2.8 l-0.6 1.68 c-1.4 3.96 -3 -1.24 -10.48 -1.24 c-6.2 0 -9.04 3.56 -9.04 9.6 c0 9 6.12 13.88 11.64 13.88 c2.88 0 3.96 -1.4 3.96 -3.68 l0 -0.72 c0 -3.04 -1.36 -4.04 -4.56 -4.52 c-0.52 -0.08 -0.04 -1.52 0.84 -1.52 l10.28 0 c1.12 0 0.72 1.4 0.28 1.52 c-1.48 0.4 -2.48 1.24 -2.48 3.8 l0 1.4 c0 0.96 0.08 1.8 0.84 3.04 c-2.4 1.32 -7.04 3.24 -8 3.24 z"></path></g></svg>